<?xml version="1.0" encoding="UTF-8" standalone="no"?>
<!-- Created with Inkscape (http://www.inkscape.org/) -->

<svg
   width="512"
   height="351"
   viewBox="0 0 135.46666 92.868752"
   version="1.1"
   id="svg5"
   inkscape:version="1.1 (c68e22c387, 2021-05-23)"
   sodipodi:docname="logo.svg"
   xmlns:inkscape="http://www.inkscape.org/namespaces/inkscape"
   xmlns:sodipodi="http://sodipodi.sourceforge.net/DTD/sodipodi-0.dtd"
   xmlns="http://www.w3.org/2000/svg"
   xmlns:svg="http://www.w3.org/2000/svg">
  <sodipodi:namedview
     id="namedview7"
     pagecolor="#ffffff"
     bordercolor="#999999"
     borderopacity="1"
     inkscape:pageshadow="0"
     inkscape:pageopacity="0"
     inkscape:pagecheckerboard="0"
     inkscape:document-units="px"
     showgrid="false"
     units="px"
     width="512px"
     inkscape:zoom="1.4142136"
     inkscape:cx="181.01934"
     inkscape:cy="141.42136"
     inkscape:window-width="1920"
     inkscape:window-height="1000"
     inkscape:window-x="-11"
     inkscape:window-y="-11"
     inkscape:window-maximized="1"
     inkscape:current-layer="layer1"
     showguides="true" />
  <defs
     id="defs2" />
  <g
     inkscape:label="Layer 1"
     inkscape:groupmode="layer"
     id="layer1">
    <rect
       style="fill:#ffffff;fill-opacity:1;stroke:none;stroke-width:8.16147;stroke-linecap:butt;stroke-linejoin:miter;stroke-miterlimit:0;stroke-dasharray:none;stroke-opacity:1;paint-order:normal"
       id="rect3999"
       width="135.46666"
       height="92.868752"
       x="0"
       y="0" />
    <path
       id="rect846"
       style="color:#000000;fill:#000000;stroke-width:2.25708;-inkscape-stroke:none"
       d="M 7.937444,4.545348 V 7.9309728 H 28.815465 V 80.157642 h 3.385626 V 7.9309728 H 53.079112 V 4.545348 Z" />
    <path
       style="color:#000000;fill:#000000;stroke-width:0.85307;stroke-miterlimit:0;-inkscape-stroke:none"
       d="m 51.950372,11.315964 c -9.017447,0 -16.363299,7.347496 -16.363299,16.364915 0,9.017419 7.345852,16.36325 16.363299,16.36325 9.017448,0 16.364966,-7.345831 16.364966,-16.36325 0,-9.017419 -7.347518,-16.364915 -16.364966,-16.364915 z m 0,3.385615 c 7.187722,0 12.979341,5.791601 12.979341,12.9793 0,7.1877 -5.791619,12.977635 -12.979341,12.977635 -7.187722,0 -12.977674,-5.789935 -12.977674,-12.977635 0,-7.187699 5.789952,-12.9793 12.977674,-12.9793 z"
       id="path1247" />
    <path
       style="color:#000000;fill:#000000;stroke-width:0.853071;stroke-miterlimit:0;-inkscape-stroke:none"
       d="m 51.950372,47.429933 c -9.017447,0 -16.363299,7.345852 -16.363299,16.363299 -3e-6,9.017445 7.34585,16.364962 16.363299,16.364962 9.017449,0 16.364969,-7.347517 16.364966,-16.364962 0,-9.017447 -7.347518,-16.363299 -16.364966,-16.363299 z m 0,3.385625 c 7.187722,0 12.979341,5.789952 12.979341,12.977674 2e-6,7.187723 -5.791618,12.979337 -12.979341,12.979337 -7.187722,0 -12.977676,-5.791614 -12.977674,-12.979337 0,-7.187722 5.789952,-12.977674 12.977674,-12.977674 z"
       id="path1247-9" />
    <path
       id="path1247-8"
       style="color:#000000;fill:#000000;stroke-width:0.853071;stroke-miterlimit:0;-inkscape-stroke:none"
       d="m 75.05173,11.316158 v 4.4e-4 h -3.35168 v 68.841044 h 3.35168 v 4.52e-4 c 0.01135,0 0.0226,-4.52e-4 0.03394,-4.52e-4 8.888602,-0.01824 16.143403,-7.174814 16.324619,-16.025292 h 0.0049 V 27.567599 h -0.0018 C 91.35203,18.602098 84.031302,11.316158 75.05173,11.316158 Z m 0.03394,3.386066 c 7.171954,0.01824 12.943405,5.802297 12.943405,12.978669 h 4.51e-4 v 36.112454 h -4.51e-4 c 0,7.176372 -5.771451,12.960421 -12.943405,12.97867 z" />
    <path
       style="color:#000000;fill:#000000;stroke-width:0.853071;stroke-miterlimit:0;-inkscape-stroke:none"
       d="m 111.16382,48.821171 c -9.01744,-2e-6 -16.363297,7.345851 -16.363297,16.3633 -2e-6,9.017454 7.345857,16.363298 16.363297,16.363298 9.01746,0 16.36497,-7.345844 16.36496,-16.363298 1e-5,-9.017449 -7.34751,-16.363302 -16.36496,-16.3633 z m 0,3.385625 c 7.18773,-2e-6 12.97935,5.789952 12.97934,12.977675 1e-5,7.187728 -5.79161,12.977673 -12.97934,12.977673 -7.18772,0 -12.977672,-5.789945 -12.977672,-12.977673 0,-7.187723 5.789952,-12.977677 12.977672,-12.977675 z"
       id="path1247-3" />
    <rect
       style="fill:#000000;fill-opacity:1;stroke-width:1.29937"
       id="rect2043"
       width="12.943417"
       height="3.3856249"
       x="71.699966"
       y="27.116087" />
    <rect
       style="fill:#000000;fill-opacity:1;stroke-width:1.29937"
       id="rect2043-7"
       width="12.943417"
       height="3.3856082"
       x="71.699966"
       y="40.65852" />
    <rect
       style="fill:#000000;fill-opacity:1;stroke-width:1.29937"
       id="rect2043-9"
       width="12.943417"
       height="3.3856249"
       x="71.699966"
       y="33.887302" />
  </g>
</svg>
